<svg width="868" height="164" viewBox="0 0 868 164" fill="none" xmlns="http://www.w3.org/2000/svg">
<g clip-path="url(#clip0_1_2)">
<path fill-rule="evenodd" clip-rule="evenodd" d="M32 22H133V49H86V142H59V49H32V22ZM133 141V64H106V141H133Z" fill="#003466"/>
<path d="M211.551 36.9503V24.2727H271.281V36.9503H249.016V97H233.817V36.9503H211.551ZM281.118 97V24.2727H330.124V36.9503H296.494V54.2798H327.602V66.9574H296.494V84.3224H330.266V97H281.118ZM406.517 49.7344H390.963C390.679 47.7221 390.099 45.9347 389.223 44.3722C388.347 42.786 387.223 41.4366 385.85 40.3239C384.477 39.2112 382.891 38.3589 381.091 37.767C379.316 37.1752 377.386 36.8793 375.303 36.8793C371.539 36.8793 368.26 37.8144 365.466 39.6847C362.673 41.5312 360.507 44.2301 358.968 47.7812C357.429 51.3087 356.659 55.5937 356.659 60.6364C356.659 65.821 357.429 70.1771 358.968 73.7045C360.53 77.232 362.708 79.8954 365.502 81.6946C368.295 83.4938 371.527 84.3935 375.196 84.3935C377.256 84.3935 379.162 84.1212 380.914 83.5767C382.689 83.0322 384.264 82.2391 385.637 81.1974C387.01 80.1321 388.146 78.8419 389.046 77.3267C389.969 75.8116 390.608 74.0833 390.963 72.142L406.517 72.2131C406.115 75.5511 405.109 78.7708 403.499 81.8722C401.913 84.9498 399.77 87.7079 397.071 90.1463C394.396 92.5611 391.2 94.4787 387.483 95.8991C383.79 97.2959 379.612 97.9943 374.948 97.9943C368.461 97.9943 362.661 96.5265 357.547 93.5909C352.457 90.6553 348.433 86.4058 345.473 80.8423C342.538 75.2789 341.07 68.5436 341.07 60.6364C341.07 52.7055 342.561 45.9583 345.544 40.3949C348.527 34.8314 352.576 30.5937 357.689 27.6818C362.803 24.7462 368.556 23.2784 374.948 23.2784C379.162 23.2784 383.068 23.8703 386.667 25.054C390.289 26.2377 393.497 27.9659 396.29 30.2386C399.084 32.4877 401.356 35.2457 403.108 38.5128C404.884 41.7798 406.02 45.5204 406.517 49.7344ZM478.375 24.2727V97H465.093L433.453 51.2259H432.92V97H417.544V24.2727H431.038L462.43 70.0114H463.069V24.2727H478.375ZM557.911 60.6364C557.911 68.5672 556.408 75.3144 553.401 80.8778C550.418 86.4413 546.346 90.6908 541.185 93.6264C536.048 96.5384 530.272 97.9943 523.856 97.9943C517.393 97.9943 511.593 96.5265 506.455 93.5909C501.318 90.6553 497.258 86.4058 494.275 80.8423C491.292 75.2789 489.8 68.5436 489.8 60.6364C489.8 52.7055 491.292 45.9583 494.275 40.3949C497.258 34.8314 501.318 30.5937 506.455 27.6818C511.593 24.7462 517.393 23.2784 523.856 23.2784C530.272 23.2784 536.048 24.7462 541.185 27.6818C546.346 30.5937 550.418 34.8314 553.401 40.3949C556.408 45.9583 557.911 52.7055 557.911 60.6364ZM542.322 60.6364C542.322 55.4991 541.552 51.1667 540.013 47.6392C538.498 44.1117 536.356 41.4366 533.586 39.6136C530.816 37.7907 527.573 36.8793 523.856 36.8793C520.139 36.8793 516.896 37.7907 514.126 39.6136C511.356 41.4366 509.201 44.1117 507.663 47.6392C506.147 51.1667 505.39 55.4991 505.39 60.6364C505.39 65.7737 506.147 70.1061 507.663 73.6335C509.201 77.161 511.356 79.8362 514.126 81.6591C516.896 83.482 520.139 84.3935 523.856 84.3935C527.573 84.3935 530.816 83.482 533.586 81.6591C536.356 79.8362 538.498 77.161 540.013 73.6335C541.552 70.1061 542.322 65.7737 542.322 60.6364ZM584.678 24.2727V97H569.301V24.2727H584.678ZM658.16 24.2727V97H644.879L613.238 51.2259H612.705V97H597.329V24.2727H610.823L642.215 70.0114H642.854V24.2727H658.16ZM670.864 97V24.2727H719.017V36.9503H686.24V54.2798H715.821V66.9574H686.24V97H670.864ZM796.192 60.6364C796.192 68.5672 794.689 75.3144 791.683 80.8778C788.7 86.4413 784.628 90.6908 779.467 93.6264C774.329 96.5384 768.553 97.9943 762.137 97.9943C755.674 97.9943 749.874 96.5265 744.737 93.5909C739.599 90.6553 735.539 86.4058 732.556 80.8423C729.573 75.2789 728.082 68.5436 728.082 60.6364C728.082 52.7055 729.573 45.9583 732.556 40.3949C735.539 34.8314 739.599 30.5937 744.737 27.6818C749.874 24.7462 755.674 23.2784 762.137 23.2784C768.553 23.2784 774.329 24.7462 779.467 27.6818C784.628 30.5937 788.7 34.8314 791.683 40.3949C794.689 45.9583 796.192 52.7055 796.192 60.6364ZM780.603 60.6364C780.603 55.4991 779.834 51.1667 778.295 47.6392C776.78 44.1117 774.637 41.4366 771.867 39.6136C769.097 37.7907 765.854 36.8793 762.137 36.8793C758.42 36.8793 755.177 37.7907 752.407 39.6136C749.637 41.4366 747.483 44.1117 745.944 47.6392C744.429 51.1667 743.671 55.4991 743.671 60.6364C743.671 65.7737 744.429 70.1061 745.944 73.6335C747.483 77.161 749.637 79.8362 752.407 81.6591C755.177 83.482 758.42 84.3935 762.137 84.3935C765.854 84.3935 769.097 83.482 771.867 81.6591C774.637 79.8362 776.78 77.161 778.295 73.6335C779.834 70.1061 780.603 65.7737 780.603 60.6364ZM807.583 97V24.2727H836.276C841.768 24.2727 846.456 25.2552 850.338 27.2202C854.245 29.1615 857.216 31.9195 859.252 35.4943C861.311 39.0455 862.341 43.224 862.341 48.0298C862.341 52.8594 861.3 57.0142 859.216 60.4943C857.133 63.9508 854.114 66.6023 850.161 68.4489C846.231 70.2955 841.472 71.2188 835.885 71.2188H816.674V58.8608H833.4C836.335 58.8608 838.774 58.4583 840.715 57.6534C842.656 56.8485 844.1 55.6411 845.047 54.0312C846.018 52.4214 846.503 50.4209 846.503 48.0298C846.503 45.6151 846.018 43.5791 845.047 41.9219C844.1 40.2647 842.644 39.0099 840.679 38.1577C838.738 37.2817 836.288 36.8438 833.328 36.8438H822.959V97H807.583ZM846.858 63.9034L864.934 97H847.959L830.275 63.9034H846.858Z" fill="#003466"/>
<rect x="2.5" y="2.5" width="159" height="159" stroke="#003466" stroke-width="5"/>
<path d="M244.432 123.182C244.261 121.742 243.57 120.625 242.358 119.83C241.146 119.034 239.659 118.636 237.898 118.636C236.61 118.636 235.483 118.845 234.517 119.261C233.561 119.678 232.813 120.251 232.273 120.98C231.742 121.709 231.477 122.538 231.477 123.466C231.477 124.242 231.662 124.91 232.031 125.469C232.41 126.018 232.893 126.477 233.48 126.847C234.067 127.206 234.683 127.505 235.327 127.741C235.971 127.969 236.562 128.153 237.102 128.295L240.057 129.091C240.814 129.29 241.657 129.564 242.585 129.915C243.523 130.265 244.418 130.743 245.27 131.349C246.132 131.946 246.842 132.713 247.401 133.651C247.959 134.588 248.239 135.739 248.239 137.102C248.239 138.674 247.827 140.095 247.003 141.364C246.188 142.633 244.995 143.641 243.423 144.389C241.861 145.137 239.962 145.511 237.727 145.511C235.644 145.511 233.84 145.175 232.315 144.503C230.8 143.83 229.607 142.893 228.736 141.69C227.874 140.488 227.386 139.091 227.273 137.5H230.909C231.004 138.598 231.373 139.508 232.017 140.227C232.67 140.937 233.494 141.468 234.489 141.818C235.492 142.159 236.572 142.33 237.727 142.33C239.072 142.33 240.279 142.112 241.349 141.676C242.42 141.231 243.267 140.616 243.892 139.83C244.517 139.034 244.83 138.106 244.83 137.045C244.83 136.08 244.56 135.294 244.02 134.688C243.48 134.081 242.77 133.589 241.889 133.21C241.009 132.831 240.057 132.5 239.034 132.216L235.455 131.193C233.182 130.54 231.383 129.607 230.057 128.395C228.731 127.183 228.068 125.597 228.068 123.636C228.068 122.008 228.509 120.587 229.389 119.375C230.279 118.153 231.473 117.206 232.969 116.534C234.474 115.852 236.155 115.511 238.011 115.511C239.886 115.511 241.553 115.848 243.011 116.52C244.47 117.183 245.625 118.092 246.477 119.247C247.339 120.402 247.794 121.714 247.841 123.182H244.432ZM278.576 130.455C278.576 133.523 278.022 136.174 276.914 138.409C275.806 140.644 274.286 142.367 272.354 143.58C270.423 144.792 268.216 145.398 265.735 145.398C263.254 145.398 261.048 144.792 259.116 143.58C257.184 142.367 255.664 140.644 254.556 138.409C253.448 136.174 252.894 133.523 252.894 130.455C252.894 127.386 253.448 124.735 254.556 122.5C255.664 120.265 257.184 118.542 259.116 117.33C261.048 116.117 263.254 115.511 265.735 115.511C268.216 115.511 270.423 116.117 272.354 117.33C274.286 118.542 275.806 120.265 276.914 122.5C278.022 124.735 278.576 127.386 278.576 130.455ZM275.167 130.455C275.167 127.936 274.746 125.81 273.903 124.077C273.069 122.344 271.938 121.032 270.508 120.142C269.087 119.252 267.496 118.807 265.735 118.807C263.974 118.807 262.378 119.252 260.948 120.142C259.528 121.032 258.396 122.344 257.553 124.077C256.72 125.81 256.303 127.936 256.303 130.455C256.303 132.973 256.72 135.099 257.553 136.832C258.396 138.565 259.528 139.877 260.948 140.767C262.378 141.657 263.974 142.102 265.735 142.102C267.496 142.102 269.087 141.657 270.508 140.767C271.938 139.877 273.069 138.565 273.903 136.832C274.746 135.099 275.167 132.973 275.167 130.455ZM284.499 145V115.909H288.022V141.875H301.545V145H284.499ZM326.09 115.909H329.613V135.17C329.613 137.159 329.144 138.935 328.207 140.497C327.279 142.05 325.967 143.277 324.272 144.176C322.577 145.066 320.588 145.511 318.306 145.511C316.024 145.511 314.035 145.066 312.34 144.176C310.645 143.277 309.329 142.05 308.391 140.497C307.463 138.935 306.999 137.159 306.999 135.17V115.909H310.522V134.886C310.522 136.307 310.835 137.571 311.46 138.679C312.085 139.777 312.975 140.644 314.13 141.278C315.295 141.903 316.687 142.216 318.306 142.216C319.925 142.216 321.317 141.903 322.482 141.278C323.647 140.644 324.537 139.777 325.153 138.679C325.778 137.571 326.09 136.307 326.09 134.886V115.909ZM360.057 125H356.534C356.326 123.987 355.961 123.097 355.44 122.33C354.929 121.562 354.304 120.919 353.565 120.398C352.836 119.867 352.027 119.47 351.136 119.205C350.246 118.939 349.318 118.807 348.352 118.807C346.591 118.807 344.995 119.252 343.565 120.142C342.145 121.032 341.013 122.344 340.17 124.077C339.337 125.81 338.92 127.936 338.92 130.455C338.92 132.973 339.337 135.099 340.17 136.832C341.013 138.565 342.145 139.877 343.565 140.767C344.995 141.657 346.591 142.102 348.352 142.102C349.318 142.102 350.246 141.97 351.136 141.705C352.027 141.439 352.836 141.046 353.565 140.526C354.304 139.995 354.929 139.347 355.44 138.58C355.961 137.803 356.326 136.913 356.534 135.909H360.057C359.792 137.396 359.309 138.726 358.608 139.901C357.907 141.075 357.036 142.074 355.994 142.898C354.953 143.712 353.783 144.332 352.486 144.759C351.198 145.185 349.82 145.398 348.352 145.398C345.871 145.398 343.665 144.792 341.733 143.58C339.801 142.367 338.281 140.644 337.173 138.409C336.065 136.174 335.511 133.523 335.511 130.455C335.511 127.386 336.065 124.735 337.173 122.5C338.281 120.265 339.801 118.542 341.733 117.33C343.665 116.117 345.871 115.511 348.352 115.511C349.82 115.511 351.198 115.724 352.486 116.151C353.783 116.577 354.953 117.202 355.994 118.026C357.036 118.84 357.907 119.834 358.608 121.009C359.309 122.173 359.792 123.504 360.057 125ZM346.875 145.114H349.659L349.432 146.25C350.17 146.364 350.848 146.671 351.463 147.173C352.079 147.685 352.386 148.494 352.386 149.602C352.386 150.824 351.88 151.818 350.866 152.585C349.863 153.362 348.381 153.75 346.42 153.75L346.307 151.534C347.188 151.534 347.917 151.392 348.494 151.108C349.081 150.833 349.375 150.369 349.375 149.716C349.375 149.063 349.134 148.617 348.651 148.381C348.168 148.144 347.386 147.983 346.307 147.898L346.875 145.114ZM390.295 130.455C390.295 133.523 389.741 136.174 388.633 138.409C387.525 140.644 386.005 142.367 384.073 143.58C382.141 144.792 379.935 145.398 377.454 145.398C374.973 145.398 372.766 144.792 370.835 143.58C368.903 142.367 367.383 140.644 366.275 138.409C365.167 136.174 364.613 133.523 364.613 130.455C364.613 127.386 365.167 124.735 366.275 122.5C367.383 120.265 368.903 118.542 370.835 117.33C372.766 116.117 374.973 115.511 377.454 115.511C379.935 115.511 382.141 116.117 384.073 117.33C386.005 118.542 387.525 120.265 388.633 122.5C389.741 124.735 390.295 127.386 390.295 130.455ZM386.886 130.455C386.886 127.936 386.464 125.81 385.621 124.077C384.788 122.344 383.656 121.032 382.227 120.142C380.806 119.252 379.215 118.807 377.454 118.807C375.692 118.807 374.097 119.252 372.667 120.142C371.246 121.032 370.115 122.344 369.272 124.077C368.439 125.81 368.022 127.936 368.022 130.455C368.022 132.973 368.439 135.099 369.272 136.832C370.115 138.565 371.246 139.877 372.667 140.767C374.097 141.657 375.692 142.102 377.454 142.102C379.215 142.102 380.806 141.657 382.227 140.767C383.656 139.877 384.788 138.565 385.621 136.832C386.464 135.099 386.886 132.973 386.886 130.455ZM373.079 113.011L370.465 112.898C370.465 111.449 370.877 110.265 371.701 109.347C372.534 108.419 373.562 107.955 374.783 107.955C375.323 107.955 375.801 108.049 376.218 108.239C376.635 108.419 377.032 108.627 377.411 108.864C377.79 109.1 378.178 109.313 378.576 109.503C378.983 109.683 379.442 109.773 379.954 109.773C380.494 109.773 380.948 109.564 381.317 109.148C381.696 108.722 381.886 108.21 381.886 107.614L384.442 107.841C384.442 109.318 384.026 110.492 383.192 111.364C382.369 112.235 381.346 112.67 380.124 112.67C379.471 112.67 378.931 112.58 378.505 112.401C378.079 112.211 377.7 111.998 377.369 111.761C377.037 111.525 376.687 111.316 376.317 111.136C375.948 110.947 375.494 110.852 374.954 110.852C374.414 110.852 373.964 111.065 373.604 111.491C373.254 111.908 373.079 112.415 373.079 113.011ZM396.218 145V115.909H413.775V119.034H399.741V128.864H412.866V131.989H399.741V141.875H414.002V145H396.218ZM436.033 123.182C435.863 121.742 435.172 120.625 433.96 119.83C432.747 119.034 431.261 118.636 429.499 118.636C428.211 118.636 427.085 118.845 426.119 119.261C425.162 119.678 424.414 120.251 423.874 120.98C423.344 121.709 423.079 122.538 423.079 123.466C423.079 124.242 423.263 124.91 423.633 125.469C424.012 126.018 424.495 126.477 425.082 126.847C425.669 127.206 426.284 127.505 426.928 127.741C427.572 127.969 428.164 128.153 428.704 128.295L431.658 129.091C432.416 129.29 433.259 129.564 434.187 129.915C435.124 130.265 436.019 130.743 436.871 131.349C437.733 131.946 438.443 132.713 439.002 133.651C439.561 134.588 439.84 135.739 439.84 137.102C439.84 138.674 439.428 140.095 438.604 141.364C437.79 142.633 436.597 143.641 435.025 144.389C433.462 145.137 431.564 145.511 429.329 145.511C427.246 145.511 425.442 145.175 423.917 144.503C422.402 143.83 421.209 142.893 420.337 141.69C419.476 140.488 418.988 139.091 418.874 137.5H422.511C422.605 138.598 422.975 139.508 423.619 140.227C424.272 140.937 425.096 141.468 426.09 141.818C427.094 142.159 428.174 142.33 429.329 142.33C430.674 142.33 431.881 142.112 432.951 141.676C434.021 141.231 434.869 140.616 435.494 139.83C436.119 139.034 436.431 138.106 436.431 137.045C436.431 136.08 436.161 135.294 435.621 134.688C435.082 134.081 434.371 133.589 433.491 133.21C432.61 132.831 431.658 132.5 430.636 132.216L427.056 131.193C424.783 130.54 422.984 129.607 421.658 128.395C420.333 127.183 419.67 125.597 419.67 123.636C419.67 122.008 420.11 120.587 420.991 119.375C421.881 118.153 423.074 117.206 424.57 116.534C426.076 115.852 427.757 115.511 429.613 115.511C431.488 115.511 433.155 115.848 434.613 116.52C436.071 117.183 437.227 118.092 438.079 119.247C438.941 120.402 439.395 121.714 439.442 123.182H436.033ZM456.882 145V115.909H474.439V119.034H460.405V128.864H473.53V131.989H460.405V141.875H474.666V145H456.882ZM480.788 115.909H484.993L494.879 140.057H495.22L505.107 115.909H509.311V145H506.016V122.898H505.732L496.641 145H493.459L484.368 122.898H484.084V145H480.788V115.909ZM526.033 119.034V115.909H547.852V119.034H538.704V145H535.181V119.034H526.033ZM556.811 115.909V145H553.288V115.909H556.811Z" fill="#003466"/>
</g>
<defs>
<clipPath id="clip0_1_2">
<rect width="868" height="164" fill="white"/>
</clipPath>
</defs>
</svg>
